<svg width="803" height="283" viewBox="0 0 803 283" fill="none" xmlns="http://www.w3.org/2000/svg">
<path d="M266.02 144.159L245.915 121.477C245.915 121.477 253.769 94.7426 257.264 71.1685C259.556 55.6259 256.625 44.3966 242.796 33.502C237.309 29.1888 229.531 27.4411 221.263 27.4411C208.712 27.4411 194.958 31.4197 186.24 36.2907C171.772 44.3595 66.5142 96.6018 66.5142 96.6018C66.5142 96.6018 148.511 27.8873 178.386 11.4152C192.44 3.64395 206.232 0.111549 219.084 0H220.098C234.115 0.111549 247.005 4.35042 257.865 11.7127C278.909 26.0282 286.763 54.2874 280.187 85.7071C273.61 117.127 266.057 144.159 266.057 144.159H266.02Z" fill="url(#paint0_linear_44_11)"/>
<path d="M97.6295 215.699C97.6295 215.699 28.184 134.566 11.5367 105.005C3.60756 90.9499 0.0375787 77.1921 0 64.364V64.1409C0.0375787 50.1228 4.32155 37.2203 11.8373 26.3628C22.9606 10.3369 42.4639 2.04504 65.3118 2.04504L86.6189 4.31321C118.373 10.8203 145.693 18.2941 145.693 18.2941L122.77 38.187C122.77 38.187 95.7506 30.4158 71.9257 26.9577L63.0947 26.2513C51.7459 26.2513 42.6894 30.3042 33.896 41.2732C22.8854 54.9566 28.5598 82.9183 36.7144 97.2338C44.869 111.549 97.6295 215.699 97.6295 215.699Z" fill="url(#paint1_linear_44_11)"/>
<path d="M62.6061 282.406C48.4765 282.369 35.5118 278.13 24.5764 270.693C3.53235 256.378 -4.3216 228.082 2.29226 196.699C8.90611 165.316 16.4219 138.247 16.4219 138.247L36.5265 160.929C36.5265 160.929 28.6725 187.663 25.1777 211.238C22.8854 226.78 25.8165 238.009 39.6455 248.904C45.132 253.217 52.9108 254.965 61.1781 254.965C73.7294 254.965 87.4832 250.986 96.2015 246.115C110.669 238.047 215.89 185.804 215.89 185.804C215.89 185.804 133.931 254.519 104.093 270.991C89.9258 278.799 76.0593 282.369 63.1698 282.406H62.6061Z" fill="url(#paint2_linear_44_11)"/>
<path d="M217.13 280.361L195.823 278.092C164.106 271.585 136.749 264.112 136.749 264.112L159.672 244.219C159.672 244.219 186.691 251.99 210.516 255.448L219.347 256.154C230.696 256.154 239.752 252.101 248.546 241.132C259.556 227.449 253.882 199.487 245.727 185.172C237.573 170.856 184.812 66.7063 184.812 66.7063C184.812 66.7063 254.258 147.84 270.905 177.4C278.797 191.419 282.404 205.139 282.442 217.893V218.413C282.404 232.394 278.12 245.222 270.604 256.043C259.481 272.069 239.978 280.361 217.13 280.361Z" fill="url(#paint3_linear_44_11)"/>
<path d="M138.59 158.698L135.509 158.549C126.415 156.541 120.327 150.555 118.674 143.118C115.705 129.918 125.776 118.243 138.59 118.243H140.131L143.288 118.763C150.804 120.399 156.854 126.423 158.545 133.859C161.513 147.059 151.442 158.698 138.628 158.698H138.59Z" fill="url(#paint4_linear_44_11)"/>
<path d="M292.819 38.1875H356.507V49.4375H305.257V77.3125H350.319V88.25H305.257V130H292.819V38.1875ZM383.382 38.1875V94.9375C383.382 101.604 384.632 107.146 387.132 111.562C390.84 118.229 397.09 121.562 405.882 121.562C416.424 121.562 423.59 117.958 427.382 110.75C429.424 106.833 430.444 101.562 430.444 94.9375V38.1875H443.069V89.75C443.069 101.042 441.549 109.729 438.507 115.812C432.924 126.896 422.382 132.438 406.882 132.438C391.382 132.438 380.861 126.896 375.319 115.812C372.278 109.729 370.757 101.042 370.757 89.75V38.1875H383.382ZM529.194 38.1875V49.125H498.257V130H485.632V49.125H454.694V38.1875H529.194ZM554.132 38.1875V94.9375C554.132 101.604 555.382 107.146 557.882 111.562C561.59 118.229 567.84 121.562 576.632 121.562C587.174 121.562 594.34 117.958 598.132 110.75C600.174 106.833 601.194 101.562 601.194 94.9375V38.1875H613.819V89.75C613.819 101.042 612.299 109.729 609.257 115.812C603.674 126.896 593.132 132.438 577.632 132.438C562.132 132.438 551.611 126.896 546.069 115.812C543.028 109.729 541.507 101.042 541.507 89.75V38.1875H554.132ZM675.819 80.25C681.653 80.25 686.257 79.0833 689.632 76.75C693.049 74.4167 694.757 70.2083 694.757 64.125C694.757 57.5833 692.382 53.125 687.632 50.75C685.09 49.5 681.694 48.875 677.444 48.875H647.069V80.25H675.819ZM634.632 38.1875H677.132C684.132 38.1875 689.903 39.2083 694.444 41.25C703.069 45.1667 707.382 52.3958 707.382 62.9375C707.382 68.4375 706.236 72.9375 703.944 76.4375C701.694 79.9375 698.528 82.75 694.444 84.875C698.028 86.3333 700.715 88.25 702.507 90.625C704.34 93 705.361 96.8542 705.569 102.188L706.007 114.5C706.132 118 706.424 120.604 706.882 122.312C707.632 125.229 708.965 127.104 710.882 127.938V130H695.632C695.215 129.208 694.882 128.188 694.632 126.938C694.382 125.688 694.174 123.271 694.007 119.688L693.257 104.375C692.965 98.375 690.736 94.3542 686.569 92.3125C684.194 91.1875 680.465 90.625 675.382 90.625H647.069V130H634.632V38.1875ZM726.819 38.1875H793.757V49.4375H738.944V77.3125H789.632V87.9375H738.944V119.062H794.694V130H726.819V38.1875ZM341.507 185.188L367.882 263.375L393.944 185.188H407.882L374.382 277H361.194L327.757 185.188H341.507ZM422.444 185.188H435.007V277H422.444V185.188ZM463.382 247.375C463.674 252.583 464.903 256.812 467.069 260.062C471.194 266.146 478.465 269.188 488.882 269.188C493.549 269.188 497.799 268.521 501.632 267.188C509.049 264.604 512.757 259.979 512.757 253.312C512.757 248.312 511.194 244.75 508.069 242.625C504.903 240.542 499.944 238.729 493.194 237.188L480.757 234.375C472.632 232.542 466.882 230.521 463.507 228.312C457.674 224.479 454.757 218.75 454.757 211.125C454.757 202.875 457.611 196.104 463.319 190.812C469.028 185.521 477.111 182.875 487.569 182.875C497.194 182.875 505.361 185.208 512.069 189.875C518.819 194.5 522.194 201.917 522.194 212.125H510.507C509.882 207.208 508.549 203.438 506.507 200.812C502.715 196.021 496.278 193.625 487.194 193.625C479.861 193.625 474.59 195.167 471.382 198.25C468.174 201.333 466.569 204.917 466.569 209C466.569 213.5 468.444 216.792 472.194 218.875C474.653 220.208 480.215 221.875 488.882 223.875L501.757 226.812C507.965 228.229 512.757 230.167 516.132 232.625C521.965 236.917 524.882 243.146 524.882 251.312C524.882 261.479 521.174 268.75 513.757 273.125C506.382 277.5 497.799 279.688 488.007 279.688C476.59 279.688 467.653 276.771 461.194 270.938C454.736 265.146 451.569 257.292 451.694 247.375H463.382ZM543.444 185.188H556.007V277H543.444V185.188ZM615.882 182.688C632.09 182.688 644.09 187.896 651.882 198.312C657.965 206.438 661.007 216.833 661.007 229.5C661.007 243.208 657.528 254.604 650.569 263.688C642.403 274.354 630.757 279.688 615.632 279.688C601.507 279.688 590.403 275.021 582.319 265.688C575.111 256.688 571.507 245.312 571.507 231.562C571.507 219.146 574.59 208.521 580.757 199.688C588.674 188.354 600.382 182.688 615.882 182.688ZM617.132 268.562C628.09 268.562 636.007 264.646 640.882 256.812C645.799 248.938 648.257 239.896 648.257 229.688C648.257 218.896 645.424 210.208 639.757 203.625C634.132 197.042 626.424 193.75 616.632 193.75C607.132 193.75 599.382 197.021 593.382 203.562C587.382 210.062 584.382 219.667 584.382 232.375C584.382 242.542 586.944 251.125 592.069 258.125C597.236 265.083 605.59 268.562 617.132 268.562ZM675.882 185.188H690.569L736.944 259.562V185.188H748.757V277H734.819L687.757 202.688V277H675.882V185.188Z" fill="url(#paint5_linear_44_11)"/>
<defs>
<linearGradient id="paint0_linear_44_11" x1="174.482" y1="0" x2="174.482" y2="144.159" gradientUnits="userSpaceOnUse">
<stop stop-color="#00FEFB"/>
<stop offset="1" stop-color="#1786F9"/>
</linearGradient>
<linearGradient id="paint1_linear_44_11" x1="0" y1="108.872" x2="145.693" y2="108.872" gradientUnits="userSpaceOnUse">
<stop stop-color="#00FEFB"/>
<stop offset="1" stop-color="#1786F9"/>
</linearGradient>
<linearGradient id="paint2_linear_44_11" x1="107.847" y1="209.193" x2="69.4968" y2="111.401" gradientUnits="userSpaceOnUse">
<stop stop-color="#00FEFB"/>
<stop offset="1" stop-color="#1786F9"/>
</linearGradient>
<linearGradient id="paint3_linear_44_11" x1="219.684" y1="182.493" x2="181.325" y2="276.132" gradientUnits="userSpaceOnUse">
<stop stop-color="#00FEFB"/>
<stop offset="1" stop-color="#1786F9"/>
</linearGradient>
<linearGradient id="paint4_linear_44_11" x1="118.148" y1="138.47" x2="159.039" y2="138.47" gradientUnits="userSpaceOnUse">
<stop stop-color="#00FEFB"/>
<stop offset="1" stop-color="#1786F9"/>
</linearGradient>
<linearGradient id="paint5_linear_44_11" x1="541.569" y1="12" x2="541.569" y2="264" gradientUnits="userSpaceOnUse">
<stop stop-color="#00FEFB"/>
<stop offset="0.0001" stop-color="#00FEFB"/>
<stop offset="0.99" stop-color="#1786F9"/>
</linearGradient>
</defs>
</svg>
