<svg width="803" height="283" viewBox="0 0 803 283" fill="none" xmlns="http://www.w3.org/2000/svg">
<path d="M266.02 144.159L245.915 121.477C245.915 121.477 253.769 94.7426 257.264 71.1685C259.556 55.6259 256.625 44.3966 242.796 33.502C237.309 29.1888 229.531 27.4411 221.263 27.4411C208.712 27.4411 194.958 31.4197 186.24 36.2907C171.772 44.3595 66.5142 96.6018 66.5142 96.6018C66.5142 96.6018 148.511 27.8873 178.386 11.4152C192.44 3.64395 206.232 0.111549 219.084 0H220.098C234.115 0.111549 247.005 4.35042 257.865 11.7127C278.909 26.0282 286.763 54.2874 280.187 85.7071C273.61 117.127 266.057 144.159 266.057 144.159H266.02Z" fill="url(#paint0_linear_44_11)"/>
<path d="M97.6295 215.699C97.6295 215.699 28.184 134.566 11.5367 105.005C3.60756 90.9499 0.0375787 77.1921 0 64.364V64.1409C0.0375787 50.1228 4.32155 37.2203 11.8373 26.3628C22.9606 10.3369 42.4639 2.04504 65.3118 2.04504L86.6189 4.31321C118.373 10.8203 145.693 18.2941 145.693 18.2941L122.77 38.187C122.77 38.187 95.7506 30.4158 71.9257 26.9577L63.0947 26.2513C51.7459 26.2513 42.6894 30.3042 33.896 41.2732C22.8854 54.9566 28.5598 82.9183 36.7144 97.2338C44.869 111.549 97.6295 215.699 97.6295 215.699Z" fill="url(#paint1_linear_44_11)"/>
<path d="M62.6061 282.406C48.4765 282.369 35.5118 278.13 24.5764 270.693C3.53235 256.378 -4.3216 228.082 2.29226 196.699C8.90611 165.316 16.4219 138.247 16.4219 138.247L36.5265 160.929C36.5265 160.929 28.6725 187.663 25.1777 211.238C22.8854 226.78 25.8165 238.009 39.6455 248.904C45.132 253.217 52.9108 254.965 61.1781 254.965C73.7294 254.965 87.4832 250.986 96.2015 246.115C110.669 238.047 215.89 185.804 215.89 185.804C215.89 185.804 133.931 254.519 104.093 270.991C89.9258 278.799 76.0593 282.369 63.1698 282.406H62.6061Z" fill="url(#paint2_linear_44_11)"/>
<path d="M217.13 280.361L195.823 278.092C164.106 271.585 136.749 264.112 136.749 264.112L159.672 244.219C159.672 244.219 186.691 251.99 210.516 255.448L219.347 256.154C230.696 256.154 239.752 252.101 248.546 241.132C259.556 227.449 253.882 199.487 245.727 185.172C237.573 170.856 184.812 66.7063 184.812 66.7063C184.812 66.7063 254.258 147.84 270.905 177.4C278.797 191.419 282.404 205.139 282.442 217.893V218.413C282.404 232.394 278.12 245.222 270.604 256.043C259.481 272.069 239.978 280.361 217.13 280.361Z" fill="url(#paint3_linear_44_11)"/>
<path d="M138.59 158.698L135.509 158.549C126.415 156.541 120.327 150.555 118.674 143.118C115.705 129.918 125.776 118.243 138.59 118.243H140.131L143.288 118.763C150.804 120.399 156.854 126.423 158.545 133.859C161.513 147.059 151.442 158.698 138.628 158.698H138.59Z" fill="url(#paint4_linear_44_11)"/>
<path d="M291.938 38.1875H355.625V49.4375H304.375V77.3125H349.438V88.25H304.375V130H291.938V38.1875ZM382.5 38.1875V94.9375C382.5 101.604 383.75 107.146 386.25 111.562C389.958 118.229 396.208 121.562 405 121.562C415.542 121.562 422.708 117.958 426.5 110.75C428.542 106.833 429.562 101.562 429.562 94.9375V38.1875H442.188V89.75C442.188 101.042 440.667 109.729 437.625 115.812C432.042 126.896 421.5 132.438 406 132.438C390.5 132.438 379.979 126.896 374.438 115.812C371.396 109.729 369.875 101.042 369.875 89.75V38.1875H382.5ZM528.312 38.1875V49.125H497.375V130H484.75V49.125H453.812V38.1875H528.312ZM553.25 38.1875V94.9375C553.25 101.604 554.5 107.146 557 111.562C560.708 118.229 566.958 121.562 575.75 121.562C586.292 121.562 593.458 117.958 597.25 110.75C599.292 106.833 600.312 101.562 600.312 94.9375V38.1875H612.938V89.75C612.938 101.042 611.417 109.729 608.375 115.812C602.792 126.896 592.25 132.438 576.75 132.438C561.25 132.438 550.729 126.896 545.188 115.812C542.146 109.729 540.625 101.042 540.625 89.75V38.1875H553.25ZM674.938 80.25C680.771 80.25 685.375 79.0833 688.75 76.75C692.167 74.4167 693.875 70.2083 693.875 64.125C693.875 57.5833 691.5 53.125 686.75 50.75C684.208 49.5 680.812 48.875 676.562 48.875H646.188V80.25H674.938ZM633.75 38.1875H676.25C683.25 38.1875 689.021 39.2083 693.562 41.25C702.188 45.1667 706.5 52.3958 706.5 62.9375C706.5 68.4375 705.354 72.9375 703.062 76.4375C700.812 79.9375 697.646 82.75 693.562 84.875C697.146 86.3333 699.833 88.25 701.625 90.625C703.458 93 704.479 96.8542 704.688 102.188L705.125 114.5C705.25 118 705.542 120.604 706 122.312C706.75 125.229 708.083 127.104 710 127.938V130H694.75C694.333 129.208 694 128.188 693.75 126.938C693.5 125.688 693.292 123.271 693.125 119.688L692.375 104.375C692.083 98.375 689.854 94.3542 685.688 92.3125C683.312 91.1875 679.583 90.625 674.5 90.625H646.188V130H633.75V38.1875ZM725.938 38.1875H792.875V49.4375H738.062V77.3125H788.75V87.9375H738.062V119.062H793.812V130H725.938V38.1875ZM298 185.188L324.375 263.375L350.438 185.188H364.375L330.875 277H317.688L284.25 185.188H298ZM378.938 185.188H391.5V277H378.938V185.188ZM419.875 247.375C420.167 252.583 421.396 256.812 423.562 260.062C427.688 266.146 434.958 269.188 445.375 269.188C450.042 269.188 454.292 268.521 458.125 267.188C465.542 264.604 469.25 259.979 469.25 253.312C469.25 248.312 467.688 244.75 464.562 242.625C461.396 240.542 456.438 238.729 449.688 237.188L437.25 234.375C429.125 232.542 423.375 230.521 420 228.312C414.167 224.479 411.25 218.75 411.25 211.125C411.25 202.875 414.104 196.104 419.812 190.812C425.521 185.521 433.604 182.875 444.062 182.875C453.688 182.875 461.854 185.208 468.562 189.875C475.312 194.5 478.688 201.917 478.688 212.125H467C466.375 207.208 465.042 203.438 463 200.812C459.208 196.021 452.771 193.625 443.688 193.625C436.354 193.625 431.083 195.167 427.875 198.25C424.667 201.333 423.062 204.917 423.062 209C423.062 213.5 424.938 216.792 428.688 218.875C431.146 220.208 436.708 221.875 445.375 223.875L458.25 226.812C464.458 228.229 469.25 230.167 472.625 232.625C478.458 236.917 481.375 243.146 481.375 251.312C481.375 261.479 477.667 268.75 470.25 273.125C462.875 277.5 454.292 279.688 444.5 279.688C433.083 279.688 424.146 276.771 417.688 270.938C411.229 265.146 408.062 257.292 408.188 247.375H419.875ZM499.938 185.188H512.5V277H499.938V185.188ZM572.375 182.688C588.583 182.688 600.583 187.896 608.375 198.312C614.458 206.438 617.5 216.833 617.5 229.5C617.5 243.208 614.021 254.604 607.062 263.688C598.896 274.354 587.25 279.688 572.125 279.688C558 279.688 546.896 275.021 538.812 265.688C531.604 256.688 528 245.312 528 231.562C528 219.146 531.083 208.521 537.25 199.688C545.167 188.354 556.875 182.688 572.375 182.688ZM573.625 268.562C584.583 268.562 592.5 264.646 597.375 256.812C602.292 248.938 604.75 239.896 604.75 229.688C604.75 218.896 601.917 210.208 596.25 203.625C590.625 197.042 582.917 193.75 573.125 193.75C563.625 193.75 555.875 197.021 549.875 203.562C543.875 210.062 540.875 219.667 540.875 232.375C540.875 242.542 543.438 251.125 548.562 258.125C553.729 265.083 562.083 268.562 573.625 268.562ZM632.375 185.188H647.062L693.438 259.562V185.188H705.25V277H691.312L644.25 202.688V277H632.375V185.188Z" fill="url(#paint5_linear_44_11)"/>
<defs>
<linearGradient id="paint0_linear_44_11" x1="174.482" y1="0" x2="174.482" y2="144.159" gradientUnits="userSpaceOnUse">
<stop stop-color="#00FEFB"/>
<stop offset="1" stop-color="#1786F9"/>
</linearGradient>
<linearGradient id="paint1_linear_44_11" x1="0" y1="108.872" x2="145.693" y2="108.872" gradientUnits="userSpaceOnUse">
<stop stop-color="#00FEFB"/>
<stop offset="1" stop-color="#1786F9"/>
</linearGradient>
<linearGradient id="paint2_linear_44_11" x1="107.847" y1="209.193" x2="69.4968" y2="111.401" gradientUnits="userSpaceOnUse">
<stop stop-color="#00FEFB"/>
<stop offset="1" stop-color="#1786F9"/>
</linearGradient>
<linearGradient id="paint3_linear_44_11" x1="219.684" y1="182.493" x2="181.325" y2="276.132" gradientUnits="userSpaceOnUse">
<stop stop-color="#00FEFB"/>
<stop offset="1" stop-color="#1786F9"/>
</linearGradient>
<linearGradient id="paint4_linear_44_11" x1="118.148" y1="138.47" x2="159.039" y2="138.47" gradientUnits="userSpaceOnUse">
<stop stop-color="#00FEFB"/>
<stop offset="1" stop-color="#1786F9"/>
</linearGradient>
<linearGradient id="paint5_linear_44_11" x1="541.569" y1="12" x2="541.569" y2="264" gradientUnits="userSpaceOnUse">
<stop stop-color="#00FEFB"/>
<stop offset="0.0001" stop-color="#00FEFB"/>
<stop offset="0.99" stop-color="#1786F9"/>
</linearGradient>
</defs>
</svg>
